<?xml version="1.0" encoding="UTF-8"?>
<!-- Created with Inkscape (http://www.inkscape.org/) -->
<svg width="512" height="512" version="1.1" viewBox="0 0 512 512" xmlns="http://www.w3.org/2000/svg">
 <g>
  <path d="m256 0a256 256 0 0 0-256 256 256 256 0 0 0 256 256 256 256 0 0 0 256-256 256 256 0 0 0-256-256zm1.0039 206.81a50.196 50.196 0 0 1 50.196 50.196 50.196 50.196 0 0 1-50.196 50.196 50.196 50.196 0 0 1-50.196-50.196 50.196 50.196 0 0 1 50.196-50.196z" fill="#e1e1e1" stroke-width="1.3754"/>
  <path d="m257 206a51 51 0 0 0-51 51 51 51 0 0 0 51 51 51 51 0 0 0 51-51 51 51 0 0 0-51-51zm0 12.75a38.25 38.25 0 0 1 38.25 38.25 38.25 38.25 0 0 1-38.25 38.25 38.25 38.25 0 0 1-38.25-38.25 38.25 38.25 0 0 1 38.25-38.25z" fill="#bebebe" stroke-width="1.3974"/>
 </g>
 <g fill="#008000" fill-opacity=".73355">
  <path d="m129 276v100h255v-100h-16.5v80h-222v-80z" stroke-width="1.37"/>
  <rect x="225" y="127" width="64" height="100" stroke-width="1.3702"/>
  <path d="m207 227 49.908 49.91 49.91-49.91z" stroke-width="1.7128"/>
 </g>
</svg>